<svg xmlns="http://www.w3.org/2000/svg" xml:space="preserve" width="2048px" height="2048px" style="shape-rendering:geometricPrecision; text-rendering:geometricPrecision; image-rendering:optimizeQuality; fill-rule:evenodd; clip-rule:evenodd"
viewBox="0 0 2048 2048"
 xmlns:xlink="http://www.w3.org/1999/xlink">
 <defs>
  <style type="text/css">
   <![CDATA[
    .fil2 {fill:none}
    .fil1 {fill:#424242}
    .fil0 {fill:#616161}
    .fil4 {fill:#B0B0B0}
    .fil5 {fill:#CCCCCC}
    .fil3 {fill:#BDBDBD;fill-rule:nonzero}
    .fil6 {fill:#FFB300;fill-rule:nonzero}
    .fil7 {fill:#FFD54F;fill-rule:nonzero}
   ]]>
  </style>
   <clipPath id="id0">
    <path d="M1024 -0.0011811c565.541,0 1024,458.461 1024,1024 0,565.541 -458.461,1024 -1024,1024 -565.541,0 -1024,-458.461 -1024,-1024 0,-565.541 458.461,-1024 1024,-1024z"/>
   </clipPath>
 </defs>
 <g id="Layer_x0020_1">
  <metadata id="CorelCorpID_0Corel-Layer"/>
  <path class="fil0" d="M1024 -0.0011811c565.541,0 1024,458.461 1024,1024 0,565.541 -458.461,1024 -1024,1024 -565.541,0 -1024,-458.461 -1024,-1024 0,-565.541 458.461,-1024 1024,-1024z"/>
  <g style="clip-path:url(#id0)">
   <g id="_517156864">
    <g>
     <path id="_5278896561" class="fil1" d="M2516.27 2026.4l0 0zm-1135.88 -1135.88l0 0z"/>
     <path id="_527889680" class="fil1" d="M2515.32 2027.54l0 0zm-1135.88 -1135.88l0 0z"/>
     <path id="_260316248" class="fil1" d="M2514.37 2028.66l0 0zm-1135.88 -1135.88l0 0z"/>
     <polygon id="_260316824" class="fil1" points="1301.92,949.371 2437.8,2085.25 2437.8,2434.7 1301.92,1298.82 "/>
     <polygon id="_260316872" class="fil1" points="1301.92,1298.82 2437.8,2434.7 2437.97,2435.67 2438.45,2436.55 2439.23,2437.33 1303.35,1301.45 1302.57,1300.66 1302.09,1299.79 "/>
     <polygon id="_260317352" class="fil1" points="1577.44,1310.58 2713.32,2446.46 2714.77,2448.05 2716.06,2449.78 2717.18,2451.63 2718.12,2453.58 2718.87,2455.64 2719.43,2457.79 2719.77,2460.01 2719.88,2462.3 1584,1326.42 1583.89,1324.13 1583.55,1321.91 1582.99,1319.76 1582.24,1317.7 1581.3,1315.74 1580.18,1313.9 1578.89,1312.17 "/>
     <polygon id="_260317496" class="fil1" points="1584,1326.42 2719.88,2462.3 2719.77,2464.59 2719.43,2466.82 2718.87,2468.97 2718.12,2471.02 2717.18,2472.98 2716.06,2474.83 2714.77,2476.55 2713.32,2478.14 2711.73,2479.59 2710.01,2480.88 2708.16,2482 2706.2,2482.94 2704.14,2483.7 2702,2484.25 2699.77,2484.59 2697.48,2484.7 1561.6,1348.82 1563.89,1348.71 1566.11,1348.37 1568.26,1347.81 1570.32,1347.06 1572.28,1346.12 1574.12,1345 1575.85,1343.71 1577.44,1342.26 1578.89,1340.67 1580.18,1338.94 1581.3,1337.1 1582.24,1335.14 1582.99,1333.08 1583.55,1330.94 1583.89,1328.71 "/>
     <polygon id="_260317640" class="fil1" points="1561.6,1348.82 2697.48,2484.7 2519.45,2484.7 1383.57,1348.82 "/>
     <polygon id="_260317520" class="fil1" points="1383.57,1348.82 2519.45,2484.7 2470.07,2563.72 1334.19,1427.83 "/>
     <polygon id="_260317256" class="fil1" points="1334.19,1427.83 2470.07,2563.72 2468.43,2562.69 2466.91,2561.74 2465.5,2560.85 2464.22,2560.04 2463.04,2559.28 2461.96,2558.59 2461,2557.97 2460.13,2557.4 2459.35,2556.9 2458.67,2556.45 2458.08,2556.05 2457.58,2555.71 2457.16,2555.43 2456.81,2555.19 2456.54,2555.01 2456.34,2554.87 1320.46,1418.98 1320.66,1419.12 1320.93,1419.31 1321.27,1419.54 1321.7,1419.83 1322.2,1420.17 1322.79,1420.56 1323.47,1421.01 1324.25,1421.52 1325.12,1422.09 1326.08,1422.71 1327.16,1423.4 1328.33,1424.15 1329.62,1424.97 1331.03,1425.86 1332.55,1426.81 "/>
     <polygon id="_260317064" class="fil1" points="1325.1,1422.84 2460.98,2558.73 2462.53,2560.26 2464.03,2561.92 2465.34,2563.65 2466.37,2565.42 2467,2567.15 2467.12,2568.81 2466.61,2570.34 2465.36,2571.69 2463.27,2572.81 2460.21,2573.66 2456.09,2574.17 2450.78,2574.3 1314.9,1438.42 1320.21,1438.29 1324.33,1437.77 1327.39,1436.93 1329.48,1435.81 1330.73,1434.45 1331.23,1432.92 1331.12,1431.27 1330.49,1429.53 1329.46,1427.77 1328.15,1426.04 1326.65,1424.38 "/>
     <polygon id="_260316920" class="fil1" points="664.43,1348.82 1800.31,2484.7 1622.28,2484.7 486.4,1348.82 "/>
     <polygon id="_260317472" class="fil1" points="732.8,1438.42 1868.68,2574.3 1867.1,2574.25 1865.55,2574.09 1864.03,2573.82 1862.55,2573.46 1861.11,2572.99 1859.72,2572.44 1858.37,2571.79 1857.07,2571.06 1855.83,2570.25 1854.65,2569.36 1853.53,2568.4 717.645,1432.52 718.765,1433.48 719.949,1434.37 721.19,1435.18 722.487,1435.91 723.834,1436.55 725.23,1437.11 726.671,1437.57 728.151,1437.94 729.669,1438.2 731.22,1438.37 "/>
     <polygon id="_260317088" class="fil1" points="745.873,932.291 1881.75,2068.17 1881.16,2067.64 1880.2,2066.88 1878.9,2065.9 1877.28,2064.73 1875.37,2063.37 1873.19,2061.85 1870.77,2060.17 1868.13,2058.35 1865.29,2056.41 1862.29,2054.36 1859.13,2052.21 1855.86,2049.98 1852.49,2047.68 1849.05,2045.33 1845.56,2042.95 1842.04,2040.54 1838.53,2038.13 1835.04,2035.72 1831.6,2033.33 1828.23,2030.98 1824.97,2028.69 1821.82,2026.45 1818.83,2024.3 1816,2022.24 1813.38,2020.29 1810.97,2018.46 1808.81,2016.77 1806.92,2015.24 1805.32,2013.87 1804.04,2012.68 668.161,876.801 669.44,877.986 671.037,879.354 672.928,880.889 675.089,882.577 677.496,884.404 680.123,886.354 682.947,888.414 685.942,890.568 689.086,892.803 692.352,895.101 695.717,897.452 699.156,899.839 702.645,902.246 706.159,904.661 709.674,907.068 713.166,909.452 716.608,911.8 719.979,914.096 723.253,916.325 726.406,918.473 729.412,920.526 732.247,922.469 734.89,924.288 737.311,925.966 739.49,927.491 741.401,928.847 743.018,930.018 744.319,930.994 745.279,931.756 "/>
     <polygon id="_260317592" class="fil1" points="486.4,1348.82 1622.28,2484.7 1619.99,2484.59 1617.77,2484.25 1615.62,2483.7 1613.56,2482.94 1611.6,2482 1609.76,2480.88 1608.03,2479.59 472.151,1343.71 473.875,1345 475.722,1346.12 477.681,1347.06 479.738,1347.81 481.885,1348.37 484.109,1348.71 "/>
     <polygon id="_260318120" class="fil1" points="1314.9,1438.42 2450.78,2574.3 1868.68,2574.3 732.8,1438.42 "/>
     <polygon id="_260318024" class="fil1" points="1377.44,692.278 2513.32,1828.16 2516.54,1831.96 2519.65,1835.82 2522.62,1839.75 2525.47,1843.74 2528.2,1847.78 2530.79,1851.88 2533.25,1856.04 2535.58,1860.25 2537.77,1864.52 2539.82,1868.84 2541.74,1873.2 2543.51,1877.62 2545.14,1882.09 2546.62,1886.6 2547.95,1891.15 2549.14,1895.75 2550.17,1900.39 2551.05,1905.07 2551.78,1909.79 2552.35,1914.54 2552.75,1919.33 2553,1924.16 2553.08,1929.02 1417.2,793.136 1417.12,788.277 1416.87,783.452 1416.46,778.66 1415.9,773.905 1415.17,769.186 1414.29,764.507 1413.26,759.868 1412.07,755.269 1410.74,750.714 1409.25,746.205 1407.63,741.74 1405.85,737.323 1403.94,732.955 1401.89,728.637 1399.69,724.371 1397.37,720.158 1394.91,715.999 1392.31,711.897 1389.59,707.853 1386.74,703.867 1383.76,699.942 1380.66,696.078 "/>
     <polygon id="_260318144" class="fil1" points="1417.2,793.136 2553.08,1929.02 2553.04,1932.32 2552.93,1935.61 2552.74,1938.89 2552.47,1942.15 2552.14,1945.39 2551.72,1948.62 2551.24,1951.83 2550.68,1955.02 2550.05,1958.19 2549.35,1961.35 2548.58,1964.49 2547.74,1967.61 2546.83,1970.71 2545.85,1973.79 2544.8,1976.84 2543.69,1979.88 2542.51,1982.9 2541.26,1985.89 2539.95,1988.86 2538.57,1991.81 2537.13,1994.74 2535.62,1997.64 2534.05,2000.52 2532.42,2003.37 2530.73,2006.2 2528.97,2009.01 2527.16,2011.79 2525.29,2014.54 2523.35,2017.26 2521.36,2019.96 2519.31,2022.63 2517.2,2025.27 1381.32,889.386 1383.43,886.745 1385.48,884.075 1387.47,881.378 1389.4,878.653 1391.28,875.903 1393.09,873.125 1394.85,870.322 1396.54,867.492 1398.17,864.638 1399.74,861.76 1401.25,858.858 1402.69,855.931 1404.06,852.982 1405.38,850.01 1406.63,847.015 1407.81,844 1408.92,840.962 1409.97,837.903 1410.95,834.824 1411.86,831.725 1412.7,828.607 1413.47,825.468 1414.17,822.312 1414.8,819.138 1415.36,815.944 1415.84,812.735 1416.25,809.508 1416.59,806.265 1416.86,803.005 1417.05,799.73 1417.16,796.44 "/>
     <polygon id="_260317784" class="fil1" points="1381.32,889.386 2517.2,2025.27 2516.26,2026.41 1380.38,890.526 "/>
     <polygon id="_260317952" class="fil1" points="1380.38,890.526 2516.26,2026.41 2515.32,2027.54 1379.44,891.66 "/>
     <polygon id="_260318192" class="fil1" points="1379.44,891.66 2515.32,2027.54 2514.36,2028.67 1378.48,892.788 "/>
     <polygon id="_260318048" class="fil1" points="1378.48,892.788 2514.36,2028.67 2512.36,2030.97 2510.32,2033.23 2508.26,2035.45 2506.17,2037.63 2504.06,2039.78 2501.92,2041.89 2499.76,2043.97 2497.57,2046.01 2495.35,2048.01 2493.11,2049.98 2490.84,2051.92 2488.55,2053.82 2486.24,2055.69 2483.9,2057.52 2481.53,2059.32 2479.14,2061.09 2476.73,2062.83 2474.3,2064.53 2471.84,2066.2 2469.35,2067.84 2466.85,2069.46 2464.32,2071.04 2461.77,2072.59 2459.19,2074.11 2456.59,2075.6 2453.97,2077.06 2451.33,2078.5 2448.67,2079.9 2445.99,2081.28 2443.28,2082.63 2440.55,2083.96 2437.8,2085.25 1301.92,949.371 1304.67,948.074 1307.4,946.75 1310.1,945.399 1312.79,944.022 1315.45,942.615 1318.09,941.181 1320.71,939.718 1323.31,938.226 1325.88,936.705 1328.44,935.154 1330.97,933.574 1333.47,931.963 1335.95,930.321 1338.41,928.647 1340.85,926.943 1343.26,925.207 1345.65,923.439 1348.02,921.637 1350.36,919.803 1352.67,917.935 1354.96,916.034 1357.23,914.098 1359.47,912.128 1361.69,910.124 1363.88,908.084 1366.04,906.008 1368.18,903.897 1370.29,901.749 1372.38,899.565 1374.44,897.343 1376.48,895.084 "/>
    </g>
    <path id="_517157152" class="fil1" d="M1380.39 890.522l0 0zm-0.943702 1.1315l0 0zm-0.954331 1.12559l0 0zm-76.565 56.5914l0 349.449c0,10.8236 57.3626,5.19922 69.2764,5.19922l190.401 0c12.3709,0 22.4008,10.0299 22.4008,22.402 0,12.3709 -10.0299,22.3996 -22.4008,22.3996l-178.031 0 -49.3819 79.0123c-9.08032,-5.64922 -12.8539,-8.23701 -13.7256,-8.84883 2.48386,1.81536 26.1177,19.8331 -5.56654,19.4374l-582.095 0c-8.5004,0 -15.8965,-4.73859 -19.6914,-11.7154l-48.6792 -77.8855 -178.03 0c-12.3709,0 -22.4008,-10.0287 -22.4008,-22.3996 0,-12.3721 10.0299,-22.402 22.4008,-22.402l190.087 0 70.2024 0c-9.41103,-39.2268 -0.612993,-309.137 -0.612993,-371.436 0,-1.78583 -70.7882,-47.3327 -78.8505,-56.7709 -23.0847,-27.0248 -36.4252,-59.1567 -36.4252,-93.795 0,-48.926 26.5429,-92.7721 69.456,-124.109 40.9004,-29.8654 96.9591,-48.339 158.484,-48.339 32.5264,0 63.5032,5.1378 91.4906,14.3658 23.3599,7.70197 44.6835,18.2894 63.1548,31.1587 19.9122,-13.1669 41.3256,-23.1189 63.9626,-30.5292 31.2425,-10.102 63.8693,-14.9953 96.6875,-14.9953 65.7284,0 125.594,19.7173 169.249,51.5953 45.6685,33.3485 73.9158,79.9749 73.9158,131.971 0,35.3256 -13.089,68.2276 -35.8819,96.2505l-0.934253 1.13976 -0.946064 1.13386 -0.955513 1.12795c-21.2658,24.7004 -47.1331,42.8894 -76.5591,56.5831z"/>
   </g>
  </g>
  <path class="fil2" d="M1024 -0.0011811c565.541,0 1024,458.461 1024,1024 0,565.541 -458.461,1024 -1024,1024 -565.541,0 -1024,-458.461 -1024,-1024 0,-565.541 458.461,-1024 1024,-1024z"/>
  <path class="fil3" d="M1301.92 949.374l0 349.449c0,12.2799 -9.95434,22.2355 -22.2343,22.2355l-511.378 0c-12.2799,0 -22.2343,-9.95552 -22.2343,-22.2355l0 -366.722c-31.8851,-13.6725 -58.9926,-33.0366 -78.8516,-56.2855 -23.0858,-27.0248 -36.4252,-59.1567 -36.4252,-93.795 0,-48.926 26.5441,-92.7721 69.456,-124.108 40.9004,-29.8666 96.9591,-48.3402 158.484,-48.3402 32.5264,0 63.5032,5.1378 91.4906,14.3658 23.3587,7.70197 44.6835,18.2894 63.1548,31.1587 19.5555,-12.9532 41.9315,-23.5784 66.3319,-31.2886 28.9878,-9.15827 60.8835,-14.2358 94.3182,-14.2358 65.7284,0 125.594,19.7173 169.249,51.5965 45.6685,33.3473 73.9158,79.9737 73.9158,131.969 0,35.3256 -13.089,68.2276 -35.8819,96.2505 -19.8225,24.3685 -47.087,44.9516 -79.3949,59.9847z"/>
  <path class="fil4" d="M1301.92 949.598l0 -0.223229 0.232677 -0.109843 0 -0.0377953c-45.854,22.6547 -102.2,36.0107 -163.114,36.0107 -74.1485,0 -141.534,-19.7847 -191.458,-52.0489 -29.8358,12.4512 -63.6756,19.4799 -99.541,19.4799 -36.841,0 -71.5453,-7.41615 -101.966,-20.5087l0 0.427559c66.502,47.1024 126.274,52.3087 201.507,21.8079 123.683,77.6481 230.893,54.4453 354.339,-4.79764z"/>
  <path class="fil5" d="M1381.32 889.39c22.7929,-28.0229 35.8819,-60.9248 35.8819,-96.2505 0,-51.9957 -28.2473,-98.6221 -73.9158,-131.969 -43.6548,-31.8792 -103.52,-51.5965 -169.249,-51.5965 -33.4347,0 -65.3304,5.07756 -94.3182,14.2358 -16.8898,5.33741 -32.8099,12.0709 -47.4957,20.0055 -70.3217,39.9307 -116.587,107.727 -116.587,184.644 0,37.9949 11.2878,73.7623 31.1882,105.046 0.252756,-0.105118 0.506693,-0.210236 0.760631,-0.316536 49.9241,32.2642 117.31,52.0489 191.458,52.0489 60.9142,0 117.26,-13.3559 163.114,-36.0107l0 0.0377953c32.2051,-15.0225 59.3871,-35.5642 79.1623,-59.8748z"/>
  <path class="fil6" d="M1389.46 1339.4l-55.2709 88.4339 -18.9874 -11.8134 18.9945 11.8725c-4.30158,6.88465 -11.7331,10.624 -19.2992,10.5284l-582.095 0c-8.5004,0 -15.8965,-4.73741 -19.6925,-11.7142l-55.2697 -88.4327 -0.0330709 0.0188977c-6.5563,-10.4894 -3.36733,-24.3106 7.12323,-30.867 3.77953,-2.36339 7.99253,-3.45945 12.1417,-3.40512l694.13 0c12.3709,0 22.4008,10.0287 22.4008,22.3996 0,4.8378 -1.53425,9.31772 -4.14213,12.9791z"/>
  <path class="fil7" d="M486.4 1304.02c-12.3709,0 -22.4008,10.0287 -22.4008,22.3996 0,12.3721 10.0299,22.4008 22.4008,22.4008l1075.2 0c12.3709,0 22.4008,-10.0287 22.4008,-22.4008 0,-12.3709 -10.0299,-22.3996 -22.4008,-22.3996l-1075.2 0z"/>
 </g>
</svg>
